<svg width="210" height="90" viewBox="0 0 210 90" fill="none" xmlns="http://www.w3.org/2000/svg">
<g filter="url(#filter0_ii_70_4055)">
<g clip-path="url(#clip0_70_4055)">
<path fill-rule="evenodd" clip-rule="evenodd" d="M45 0C20.1472 0 0 20.1472 0 45C0 69.8528 20.1472 90 45 90H165C189.853 90 210 69.8528 210 45C210 20.1472 189.853 0 165 0H45ZM305 0C280.147 0 260 20.1472 260 45C260 69.8528 280.147 90 305 90H425C449.853 90 470 69.8528 470 45C470 20.1472 449.853 0 425 0H305Z" fill="url(#paint0_linear_70_4055)"/>
<path fill-rule="evenodd" clip-rule="evenodd" d="M45 0C20.1472 0 0 20.1472 0 45C0 69.8528 20.1472 90 45 90H165C189.853 90 210 69.8528 210 45C210 20.1472 189.853 0 165 0H45ZM305 0C280.147 0 260 20.1472 260 45C260 69.8528 280.147 90 305 90H425C449.853 90 470 69.8528 470 45C470 20.1472 449.853 0 425 0H305Z" fill="url(#paint1_radial_70_4055)" style="mix-blend-mode:overlay"/>
<path fill-rule="evenodd" clip-rule="evenodd" d="M45 0C20.1472 0 0 20.1472 0 45C0 69.8528 20.1472 90 45 90H165C189.853 90 210 69.8528 210 45C210 20.1472 189.853 0 165 0H45ZM305 0C280.147 0 260 20.1472 260 45C260 69.8528 280.147 90 305 90H425C449.853 90 470 69.8528 470 45C470 20.1472 449.853 0 425 0H305Z" fill="#1B2F31" style="mix-blend-mode:color"/>
</g>
</g>
<defs>
<filter id="filter0_ii_70_4055" x="0" y="-1.5" width="210" height="93" filterUnits="userSpaceOnUse" color-interpolation-filters="sRGB">
<feFlood flood-opacity="0" result="BackgroundImageFix"/>
<feBlend mode="normal" in="SourceGraphic" in2="BackgroundImageFix" result="shape"/>
<feColorMatrix in="SourceAlpha" type="matrix" values="0 0 0 0 0 0 0 0 0 0 0 0 0 0 0 0 0 0 127 0" result="hardAlpha"/>
<feOffset dy="3"/>
<feGaussianBlur stdDeviation="0.75"/>
<feComposite in2="hardAlpha" operator="arithmetic" k2="-1" k3="1"/>
<feColorMatrix type="matrix" values="0 0 0 0 1 0 0 0 0 1 0 0 0 0 1 0 0 0 0.4 0"/>
<feBlend mode="normal" in2="shape" result="effect1_innerShadow_70_4055"/>
<feColorMatrix in="SourceAlpha" type="matrix" values="0 0 0 0 0 0 0 0 0 0 0 0 0 0 0 0 0 0 127 0" result="hardAlpha"/>
<feOffset dy="-3"/>
<feGaussianBlur stdDeviation="0.75"/>
<feComposite in2="hardAlpha" operator="arithmetic" k2="-1" k3="1"/>
<feColorMatrix type="matrix" values="0 0 0 0 0 0 0 0 0 0 0 0 0 0 0 0 0 0 0.5 0"/>
<feBlend mode="normal" in2="effect1_innerShadow_70_4055" result="effect2_innerShadow_70_4055"/>
</filter>
<linearGradient id="paint0_linear_70_4055" x1="13" y1="59.5125" x2="148.12" y2="-166.438" gradientUnits="userSpaceOnUse">
<stop stop-color="#576265"/>
<stop offset="0.136981" stop-color="#9EA1A1"/>
<stop offset="0.353756" stop-color="#848B8A"/>
<stop offset="0.461424" stop-color="#576265"/>
<stop offset="0.727872" stop-color="#9EA1A1"/>
<stop offset="0.94241" stop-color="#757A7B"/>
<stop offset="1" stop-color="#576265"/>
</linearGradient>
<radialGradient id="paint1_radial_70_4055" cx="0" cy="0" r="1" gradientUnits="userSpaceOnUse" gradientTransform="translate(-14.195 -3.15) rotate(11.122) scale(225.118 85.2588)">
<stop stop-color="white"/>
<stop offset="1" stop-color="white" stop-opacity="0"/>
</radialGradient>
<clipPath id="clip0_70_4055">
<rect width="210" height="90" rx="45" fill="white"/>
</clipPath>
</defs>
</svg>
