<svg width="68" height="122" viewBox="0 0 68 122" fill="none" xmlns="http://www.w3.org/2000/svg">
<g filter="url(#filter0_dii_94_57)">
<path fill-rule="evenodd" clip-rule="evenodd" d="M46.2563 60.6092L34 4L21.7435 60.6102C11.2858 65.2974 4.00098 75.798 4.00098 88C4.00098 104.569 17.4324 118 34.001 118C50.5695 118 64.001 104.569 64.001 88C64.001 75.7971 56.7152 65.2959 46.2563 60.6092Z" fill="url(#paint0_linear_94_57)"/>
<path fill-rule="evenodd" clip-rule="evenodd" d="M46.2563 60.6092L34 4L21.7435 60.6102C11.2858 65.2974 4.00098 75.798 4.00098 88C4.00098 104.569 17.4324 118 34.001 118C50.5695 118 64.001 104.569 64.001 88C64.001 75.7971 56.7152 65.2959 46.2563 60.6092Z" fill="url(#paint1_radial_94_57)" style="mix-blend-mode:overlay"/>
<path fill-rule="evenodd" clip-rule="evenodd" d="M46.2563 60.6092L34 4L21.7435 60.6102C11.2858 65.2974 4.00098 75.798 4.00098 88C4.00098 104.569 17.4324 118 34.001 118C50.5695 118 64.001 104.569 64.001 88C64.001 75.7971 56.7152 65.2959 46.2563 60.6092Z" fill="#1B2F31" style="mix-blend-mode:color"/>
</g>
<defs>
<filter id="filter0_dii_94_57" x="0.728762" y="0.727786" width="66.5444" height="120.544" filterUnits="userSpaceOnUse" color-interpolation-filters="sRGB">
<feFlood flood-opacity="0" result="BackgroundImageFix"/>
<feColorMatrix in="SourceAlpha" type="matrix" values="0 0 0 0 0 0 0 0 0 0 0 0 0 0 0 0 0 0 127 0" result="hardAlpha"/>
<feOffset/>
<feGaussianBlur stdDeviation="1.63611"/>
<feComposite in2="hardAlpha" operator="out"/>
<feColorMatrix type="matrix" values="0 0 0 0 0 0 0 0 0 0 0 0 0 0 0 0 0 0 1 0"/>
<feBlend mode="normal" in2="BackgroundImageFix" result="effect1_dropShadow_94_57"/>
<feBlend mode="normal" in="SourceGraphic" in2="effect1_dropShadow_94_57" result="shape"/>
<feColorMatrix in="SourceAlpha" type="matrix" values="0 0 0 0 0 0 0 0 0 0 0 0 0 0 0 0 0 0 127 0" result="hardAlpha"/>
<feOffset dy="2.45416"/>
<feGaussianBlur stdDeviation="0.61354"/>
<feComposite in2="hardAlpha" operator="arithmetic" k2="-1" k3="1"/>
<feColorMatrix type="matrix" values="0 0 0 0 1 0 0 0 0 1 0 0 0 0 1 0 0 0 0.4 0"/>
<feBlend mode="normal" in2="shape" result="effect2_innerShadow_94_57"/>
<feColorMatrix in="SourceAlpha" type="matrix" values="0 0 0 0 0 0 0 0 0 0 0 0 0 0 0 0 0 0 127 0" result="hardAlpha"/>
<feOffset dy="-2.45416"/>
<feGaussianBlur stdDeviation="0.61354"/>
<feComposite in2="hardAlpha" operator="arithmetic" k2="-1" k3="1"/>
<feColorMatrix type="matrix" values="0 0 0 0 0 0 0 0 0 0 0 0 0 0 0 0 0 0 0.5 0"/>
<feBlend mode="normal" in2="effect2_innerShadow_94_57" result="effect3_innerShadow_94_57"/>
</filter>
<linearGradient id="paint0_linear_94_57" x1="4.00098" y1="89.7025" x2="71.0964" y2="73.7613" gradientUnits="userSpaceOnUse">
<stop stop-color="#576265"/>
<stop offset="0.29405" stop-color="#9EA1A1"/>
<stop offset="0.402482" stop-color="#848B8A"/>
<stop offset="0.51791" stop-color="#576265"/>
<stop offset="0.720878" stop-color="#576265"/>
<stop offset="0.790621" stop-color="#757A7B"/>
<stop offset="0.865839" stop-color="#576265"/>
</linearGradient>
<radialGradient id="paint1_radial_94_57" cx="0" cy="0" r="1" gradientUnits="userSpaceOnUse" gradientTransform="translate(-0.0892883 42.0479) rotate(50.9541) scale(47.3994 45.0268)">
<stop stop-color="white"/>
<stop offset="1" stop-color="white" stop-opacity="0"/>
</radialGradient>
</defs>
</svg>
