<svg width="407" height="404" viewBox="0 0 407 404" fill="none" xmlns="http://www.w3.org/2000/svg">
<defs>
  <pattern id="bg-petra" patternUnits="userSpaceOnUse" width="100" height="100">
    <image href="./assets/profiles/Petra_square.webp" x="0" y="0" width="100" height="100" />
    <rect width="100" height="100" fill="#E0218A" style="mix-blend-mode:color"/>
  </pattern>
</defs>
<circle cx="202.523" cy="201.786" r="201.65" fill="#1B2F31"/>
<path fill="url(#bg-petra)" d="M52.8739 81.4361C74.3588 54.7927 102.533 34.3228 134.512 22.1227C138.652 20.5431 143.26 22.8499 144.663 27.1685L192.584 174.655C195.033 182.192 186.407 188.459 179.996 183.801L54.536 92.6495C50.8623 89.9805 50.0922 84.8856 52.8739 81.4361Z" stroke="#1B2F31" stroke-width="3.27221"/>
<path d="M10.2155 192.31C11.9366 158.127 22.6983 125.006 41.3985 96.3389C43.8196 92.6274 48.903 91.7854 52.5767 94.4545L178.036 185.606C184.448 190.264 181.153 200.405 173.228 200.405L18.1513 200.405C13.6104 200.405 9.99272 196.736 10.2155 192.31Z" stroke="#1B2F31" stroke-width="3.27221"/>
<path d="M41.3574 307.744C22.6572 279.077 11.8956 245.956 10.1745 211.773C9.95167 207.347 13.5693 203.678 18.1102 203.678L173.187 203.678C181.112 203.678 184.406 213.818 177.995 218.476L52.5356 309.628C48.862 312.297 43.7785 311.455 41.3574 307.744Z" stroke="#1B2F31" stroke-width="3.27221"/>
<path d="M134.401 383.644C102.423 371.444 74.2482 350.974 52.7632 324.33C49.9816 320.881 50.7516 315.786 54.4253 313.117L179.885 221.965C186.296 217.307 194.922 223.575 192.474 231.111L144.552 378.598C143.149 382.917 138.541 385.223 134.401 383.644Z" stroke="#1B2F31" stroke-width="3.27221"/>
<path d="M252.99 388.88C219.948 397.806 185.122 397.806 152.08 388.88C147.802 387.724 145.43 383.15 146.833 378.831L194.755 231.345C197.204 223.808 207.866 223.808 210.315 231.345L258.236 378.831C259.64 383.15 257.268 387.724 252.99 388.88Z" stroke="#1B2F31" stroke-width="3.27221"/>
<path d="M353.969 324.411C332.484 351.054 304.31 371.524 272.331 383.724C268.191 385.304 263.583 382.997 262.18 378.678L214.259 231.191C211.81 223.655 220.436 217.387 226.847 222.045L352.307 313.197C355.98 315.866 356.751 320.961 353.969 324.411Z" stroke="#1B2F31" stroke-width="3.27221"/>
<path d="M396.625 212.719C394.904 246.903 384.143 280.024 365.442 308.69C363.021 312.402 357.938 313.244 354.264 310.575L228.804 219.423C222.393 214.765 225.688 204.624 233.613 204.624L388.69 204.624C393.23 204.624 396.848 208.294 396.625 212.719Z" stroke="#1B2F31" stroke-width="3.27221"/>
<path d="M365.483 96.4681C384.184 125.135 394.945 158.256 396.666 192.439C396.889 196.865 393.271 200.534 388.731 200.534L233.654 200.534C225.729 200.534 222.434 190.393 228.846 185.735L354.305 94.5837C357.979 91.9146 363.062 92.7567 365.483 96.4681Z" stroke="#1B2F31" stroke-width="3.27221"/>
<path d="M272.439 22.2033C304.417 34.4034 332.592 54.8733 354.077 81.5168C356.858 84.9663 356.088 90.0611 352.415 92.7302L226.955 183.882C220.544 188.54 211.917 182.273 214.366 174.736L262.288 27.2492C263.691 22.9305 268.298 20.6238 272.439 22.2033Z" stroke="#1B2F31" stroke-width="3.27221"/>
<path d="M153.034 15.3309C186.076 6.40449 220.901 6.40449 253.944 15.3309C258.222 16.4867 260.593 21.0611 259.19 25.3798L211.269 172.866C208.82 180.403 198.157 180.403 195.708 172.866L147.787 25.3798C146.384 21.0611 148.756 16.4867 153.034 15.3309Z" stroke="#1B2F31" stroke-width="3.27221"/>
</svg>
