<svg width="546" height="580" viewBox="0 0 546 580" fill="none" xmlns="http://www.w3.org/2000/svg">
<g filter="url(#filter0_ii_94_9)">
<path d="M180.158 476.072L362.584 476.072L387.125 557.877L155.616 557.877L180.158 476.072Z" fill="url(#paint0_linear_94_9)"/>
<path d="M180.158 476.072L362.584 476.072L387.125 557.877L155.616 557.877L180.158 476.072Z" fill="url(#paint1_radial_94_9)" style="mix-blend-mode:overlay"/>
<path d="M180.158 476.072L362.584 476.072L387.125 557.877L155.616 557.877L180.158 476.072Z" fill="#1B2F31" style="mix-blend-mode:color"/>
</g>
<g filter="url(#filter1_dii_94_9)">
<rect x="142.527" y="553.787" width="260.959" height="26.1777" rx="4.09027" fill="url(#paint2_linear_94_9)"/>
<rect x="142.527" y="553.787" width="260.959" height="26.1777" rx="4.09027" fill="url(#paint3_radial_94_9)" style="mix-blend-mode:overlay"/>
<rect x="142.527" y="553.787" width="260.959" height="26.1777" rx="4.09027" fill="#1B2F31" style="mix-blend-mode:color"/>
</g>
<path fill-rule="evenodd" clip-rule="evenodd" d="M273.008 520.247C409.677 520.247 520.469 409.454 520.469 272.785C520.469 136.116 409.677 25.3242 273.008 25.3242C136.339 25.3242 25.5469 136.116 25.5469 272.785C25.5469 409.454 136.339 520.247 273.008 520.247ZM273.008 474.436C384.376 474.436 474.658 384.154 474.658 272.786C474.658 161.418 384.376 71.1357 273.008 71.1357C161.639 71.1357 71.3574 161.418 71.3574 272.786C71.3574 384.154 161.639 474.436 273.008 474.436Z" fill="#1B2F31"/>
<g filter="url(#filter2_dii_94_9)">
<path fill-rule="evenodd" clip-rule="evenodd" d="M273.008 487.525C391.605 487.525 487.747 391.383 487.747 272.786C487.747 154.189 391.605 58.0469 273.008 58.0469C154.411 58.0469 58.2686 154.189 58.2686 272.786C58.2686 391.383 154.411 487.525 273.008 487.525ZM273.007 474.436C384.376 474.436 474.658 384.154 474.658 272.786C474.658 161.417 384.376 71.1355 273.007 71.1355C161.639 71.1355 71.3572 161.417 71.3572 272.786C71.3572 384.154 161.639 474.436 273.007 474.436Z" fill="url(#paint4_linear_94_9)"/>
<path fill-rule="evenodd" clip-rule="evenodd" d="M273.008 487.525C391.605 487.525 487.747 391.383 487.747 272.786C487.747 154.189 391.605 58.0469 273.008 58.0469C154.411 58.0469 58.2686 154.189 58.2686 272.786C58.2686 391.383 154.411 487.525 273.008 487.525ZM273.007 474.436C384.376 474.436 474.658 384.154 474.658 272.786C474.658 161.417 384.376 71.1355 273.007 71.1355C161.639 71.1355 71.3572 161.417 71.3572 272.786C71.3572 384.154 161.639 474.436 273.007 474.436Z" fill="url(#paint5_radial_94_9)" style="mix-blend-mode:overlay"/>
<path fill-rule="evenodd" clip-rule="evenodd" d="M273.008 487.525C391.605 487.525 487.747 391.383 487.747 272.786C487.747 154.189 391.605 58.0469 273.008 58.0469C154.411 58.0469 58.2686 154.189 58.2686 272.786C58.2686 391.383 154.411 487.525 273.008 487.525ZM273.007 474.436C384.376 474.436 474.658 384.154 474.658 272.786C474.658 161.417 384.376 71.1355 273.007 71.1355C161.639 71.1355 71.3572 161.417 71.3572 272.786C71.3572 384.154 161.639 474.436 273.007 474.436Z" fill="#1B2F31" style="mix-blend-mode:color"/>
</g>
<defs>
<filter id="filter0_ii_94_9" x="155.616" y="474.845" width="231.509" height="84.2593" filterUnits="userSpaceOnUse" color-interpolation-filters="sRGB">
<feFlood flood-opacity="0" result="BackgroundImageFix"/>
<feBlend mode="normal" in="SourceGraphic" in2="BackgroundImageFix" result="shape"/>
<feColorMatrix in="SourceAlpha" type="matrix" values="0 0 0 0 0 0 0 0 0 0 0 0 0 0 0 0 0 0 127 0" result="hardAlpha"/>
<feOffset dy="2.45416"/>
<feGaussianBlur stdDeviation="0.61354"/>
<feComposite in2="hardAlpha" operator="arithmetic" k2="-1" k3="1"/>
<feColorMatrix type="matrix" values="0 0 0 0 1 0 0 0 0 1 0 0 0 0 1 0 0 0 0.4 0"/>
<feBlend mode="normal" in2="shape" result="effect1_innerShadow_94_9"/>
<feColorMatrix in="SourceAlpha" type="matrix" values="0 0 0 0 0 0 0 0 0 0 0 0 0 0 0 0 0 0 127 0" result="hardAlpha"/>
<feOffset dy="-2.45416"/>
<feGaussianBlur stdDeviation="0.61354"/>
<feComposite in2="hardAlpha" operator="arithmetic" k2="-1" k3="1"/>
<feColorMatrix type="matrix" values="0 0 0 0 0 0 0 0 0 0 0 0 0 0 0 0 0 0 0.5 0"/>
<feBlend mode="normal" in2="effect1_innerShadow_94_9" result="effect2_innerShadow_94_9"/>
</filter>
<filter id="filter1_dii_94_9" x="139.255" y="547.243" width="267.503" height="33.9492" filterUnits="userSpaceOnUse" color-interpolation-filters="sRGB">
<feFlood flood-opacity="0" result="BackgroundImageFix"/>
<feColorMatrix in="SourceAlpha" type="matrix" values="0 0 0 0 0 0 0 0 0 0 0 0 0 0 0 0 0 0 127 0" result="hardAlpha"/>
<feOffset dy="-3.27221"/>
<feGaussianBlur stdDeviation="1.63611"/>
<feComposite in2="hardAlpha" operator="out"/>
<feColorMatrix type="matrix" values="0 0 0 0 0 0 0 0 0 0 0 0 0 0 0 0 0 0 0.5 0"/>
<feBlend mode="normal" in2="BackgroundImageFix" result="effect1_dropShadow_94_9"/>
<feBlend mode="normal" in="SourceGraphic" in2="effect1_dropShadow_94_9" result="shape"/>
<feColorMatrix in="SourceAlpha" type="matrix" values="0 0 0 0 0 0 0 0 0 0 0 0 0 0 0 0 0 0 127 0" result="hardAlpha"/>
<feOffset dy="2.45416"/>
<feGaussianBlur stdDeviation="0.61354"/>
<feComposite in2="hardAlpha" operator="arithmetic" k2="-1" k3="1"/>
<feColorMatrix type="matrix" values="0 0 0 0 1 0 0 0 0 1 0 0 0 0 1 0 0 0 0.4 0"/>
<feBlend mode="normal" in2="shape" result="effect2_innerShadow_94_9"/>
<feColorMatrix in="SourceAlpha" type="matrix" values="0 0 0 0 0 0 0 0 0 0 0 0 0 0 0 0 0 0 127 0" result="hardAlpha"/>
<feOffset dy="-2.45416"/>
<feGaussianBlur stdDeviation="0.61354"/>
<feComposite in2="hardAlpha" operator="arithmetic" k2="-1" k3="1"/>
<feColorMatrix type="matrix" values="0 0 0 0 0 0 0 0 0 0 0 0 0 0 0 0 0 0 0.5 0"/>
<feBlend mode="normal" in2="effect2_innerShadow_94_9" result="effect3_innerShadow_94_9"/>
</filter>
<filter id="filter2_dii_94_9" x="28.0006" y="27.7789" width="490.014" height="490.014" filterUnits="userSpaceOnUse" color-interpolation-filters="sRGB">
<feFlood flood-opacity="0" result="BackgroundImageFix"/>
<feColorMatrix in="SourceAlpha" type="matrix" values="0 0 0 0 0 0 0 0 0 0 0 0 0 0 0 0 0 0 127 0" result="hardAlpha"/>
<feMorphology radius="1.63611" operator="dilate" in="SourceAlpha" result="effect1_dropShadow_94_9"/>
<feOffset/>
<feGaussianBlur stdDeviation="14.3159"/>
<feComposite in2="hardAlpha" operator="out"/>
<feColorMatrix type="matrix" values="0 0 0 0 0 0 0 0 0 0 0 0 0 0 0 0 0 0 1 0"/>
<feBlend mode="normal" in2="BackgroundImageFix" result="effect1_dropShadow_94_9"/>
<feBlend mode="normal" in="SourceGraphic" in2="effect1_dropShadow_94_9" result="shape"/>
<feColorMatrix in="SourceAlpha" type="matrix" values="0 0 0 0 0 0 0 0 0 0 0 0 0 0 0 0 0 0 127 0" result="hardAlpha"/>
<feOffset dy="2.53131"/>
<feGaussianBlur stdDeviation="0.632826"/>
<feComposite in2="hardAlpha" operator="arithmetic" k2="-1" k3="1"/>
<feColorMatrix type="matrix" values="0 0 0 0 1 0 0 0 0 1 0 0 0 0 1 0 0 0 0.4 0"/>
<feBlend mode="normal" in2="shape" result="effect2_innerShadow_94_9"/>
<feColorMatrix in="SourceAlpha" type="matrix" values="0 0 0 0 0 0 0 0 0 0 0 0 0 0 0 0 0 0 127 0" result="hardAlpha"/>
<feOffset dy="-2.53131"/>
<feGaussianBlur stdDeviation="0.632826"/>
<feComposite in2="hardAlpha" operator="arithmetic" k2="-1" k3="1"/>
<feColorMatrix type="matrix" values="0 0 0 0 0 0 0 0 0 0 0 0 0 0 0 0 0 0 0.5 0"/>
<feBlend mode="normal" in2="effect2_innerShadow_94_9" result="effect3_innerShadow_94_9"/>
</filter>
<linearGradient id="paint0_linear_94_9" x1="155.616" y1="530.166" x2="294.907" y2="396.549" gradientUnits="userSpaceOnUse">
<stop stop-color="#576265"/>
<stop offset="0.136981" stop-color="#9EA1A1"/>
<stop offset="0.477532" stop-color="#848B8A"/>
<stop offset="0.563797" stop-color="#576265"/>
<stop offset="0.841205" stop-color="#576265"/>
<stop offset="0.913823" stop-color="#757A7B"/>
<stop offset="1" stop-color="#576265"/>
</linearGradient>
<radialGradient id="paint1_radial_94_9" cx="0" cy="0" r="1" gradientUnits="userSpaceOnUse" gradientTransform="translate(141.436 473.209) rotate(18.9167) scale(121.752 74.7136)">
<stop stop-color="white"/>
<stop offset="1" stop-color="white" stop-opacity="0"/>
</radialGradient>
<linearGradient id="paint2_linear_94_9" x1="142.527" y1="571.097" x2="166.806" y2="489.059" gradientUnits="userSpaceOnUse">
<stop stop-color="#576265"/>
<stop offset="0.136981" stop-color="#9EA1A1"/>
<stop offset="0.477532" stop-color="#848B8A"/>
<stop offset="0.563797" stop-color="#576265"/>
<stop offset="0.841205" stop-color="#576265"/>
<stop offset="0.913823" stop-color="#757A7B"/>
<stop offset="1" stop-color="#576265"/>
</linearGradient>
<radialGradient id="paint3_radial_94_9" cx="0" cy="0" r="1" gradientUnits="userSpaceOnUse" gradientTransform="translate(126.544 552.871) rotate(5.55676) scale(130.44 25.1546)">
<stop stop-color="white"/>
<stop offset="1" stop-color="white" stop-opacity="0"/>
</radialGradient>
<linearGradient id="paint4_linear_94_9" x1="58.2685" y1="342.039" x2="503.315" y2="191.185" gradientUnits="userSpaceOnUse">
<stop stop-color="#576265"/>
<stop offset="0.136981" stop-color="#9EA1A1"/>
<stop offset="0.477532" stop-color="#848B8A"/>
<stop offset="0.563797" stop-color="#576265"/>
<stop offset="0.841205" stop-color="#576265"/>
<stop offset="0.913823" stop-color="#757A7B"/>
<stop offset="1" stop-color="#576265"/>
</linearGradient>
<radialGradient id="paint5_radial_94_9" cx="0" cy="0" r="1" gradientUnits="userSpaceOnUse" gradientTransform="translate(31.963 43.0151) rotate(44.1231) scale(297.648)">
<stop stop-color="white"/>
<stop offset="1" stop-color="white" stop-opacity="0"/>
</radialGradient>
</defs>
</svg>
