<svg width="83" height="149" viewBox="0 0 83 149" fill="none" xmlns="http://www.w3.org/2000/svg">
<g filter="url(#filter0_dii_70_2685)">
<path fill-rule="evenodd" clip-rule="evenodd" d="M56.3179 73.0395L41.501 3.99854L26.6843 73.0386C13.3416 78.7828 4 92.0496 4 107.498C4 128.209 20.7893 144.998 41.5 144.998C62.2107 144.998 79 128.209 79 107.498C79 92.0504 69.6594 78.7843 56.3179 73.0395Z" fill="url(#paint0_linear_70_2685)"/>
<path fill-rule="evenodd" clip-rule="evenodd" d="M56.3179 73.0395L41.501 3.99854L26.6843 73.0386C13.3416 78.7828 4 92.0496 4 107.498C4 128.209 20.7893 144.998 41.5 144.998C62.2107 144.998 79 128.209 79 107.498C79 92.0504 69.6594 78.7843 56.3179 73.0395Z" fill="url(#paint1_radial_70_2685)" style="mix-blend-mode:overlay"/>
<path fill-rule="evenodd" clip-rule="evenodd" d="M56.3179 73.0395L41.501 3.99854L26.6843 73.0386C13.3416 78.7828 4 92.0496 4 107.498C4 128.209 20.7893 144.998 41.5 144.998C62.2107 144.998 79 128.209 79 107.498C79 92.0504 69.6594 78.7843 56.3179 73.0395Z" fill="#1B2F31" style="mix-blend-mode:color"/>
</g>
<defs>
<filter id="filter0_dii_70_2685" x="0" y="-0.00146484" width="83" height="149" filterUnits="userSpaceOnUse" color-interpolation-filters="sRGB">
<feFlood flood-opacity="0" result="BackgroundImageFix"/>
<feColorMatrix in="SourceAlpha" type="matrix" values="0 0 0 0 0 0 0 0 0 0 0 0 0 0 0 0 0 0 127 0" result="hardAlpha"/>
<feOffset/>
<feGaussianBlur stdDeviation="2"/>
<feComposite in2="hardAlpha" operator="out"/>
<feColorMatrix type="matrix" values="0 0 0 0 0 0 0 0 0 0 0 0 0 0 0 0 0 0 1 0"/>
<feBlend mode="normal" in2="BackgroundImageFix" result="effect1_dropShadow_70_2685"/>
<feBlend mode="normal" in="SourceGraphic" in2="effect1_dropShadow_70_2685" result="shape"/>
<feColorMatrix in="SourceAlpha" type="matrix" values="0 0 0 0 0 0 0 0 0 0 0 0 0 0 0 0 0 0 127 0" result="hardAlpha"/>
<feOffset dy="3"/>
<feGaussianBlur stdDeviation="0.75"/>
<feComposite in2="hardAlpha" operator="arithmetic" k2="-1" k3="1"/>
<feColorMatrix type="matrix" values="0 0 0 0 1 0 0 0 0 1 0 0 0 0 1 0 0 0 0.4 0"/>
<feBlend mode="normal" in2="shape" result="effect2_innerShadow_70_2685"/>
<feColorMatrix in="SourceAlpha" type="matrix" values="0 0 0 0 0 0 0 0 0 0 0 0 0 0 0 0 0 0 127 0" result="hardAlpha"/>
<feOffset dy="-3"/>
<feGaussianBlur stdDeviation="0.75"/>
<feComposite in2="hardAlpha" operator="arithmetic" k2="-1" k3="1"/>
<feColorMatrix type="matrix" values="0 0 0 0 0 0 0 0 0 0 0 0 0 0 0 0 0 0 0.5 0"/>
<feBlend mode="normal" in2="effect2_innerShadow_70_2685" result="effect3_innerShadow_70_2685"/>
</filter>
<linearGradient id="paint0_linear_70_2685" x1="4.00001" y1="108.752" x2="86.0184" y2="89.2649" gradientUnits="userSpaceOnUse">
<stop stop-color="#576265"/>
<stop offset="0.29405" stop-color="#9EA1A1"/>
<stop offset="0.402482" stop-color="#848B8A"/>
<stop offset="0.51791" stop-color="#576265"/>
<stop offset="0.720878" stop-color="#576265"/>
<stop offset="0.790621" stop-color="#757A7B"/>
<stop offset="0.865839" stop-color="#576265"/>
</linearGradient>
<radialGradient id="paint1_radial_70_2685" cx="0" cy="0" r="1" gradientUnits="userSpaceOnUse" gradientTransform="translate(-0.999994 50.4981) rotate(50.954) scale(57.9417 55.0413)">
<stop stop-color="white"/>
<stop offset="1" stop-color="white" stop-opacity="0"/>
</radialGradient>
</defs>
</svg>
