<svg width="599" height="599" viewBox="0 0 599 599" fill="none" xmlns="http://www.w3.org/2000/svg">
<g filter="url(#filter0_dii_70_2682)">
<path fill-rule="evenodd" clip-rule="evenodd" d="M299.5 562C444.475 562 562 444.475 562 299.5C562 154.525 444.475 37 299.5 37C154.525 37 37 154.525 37 299.5C37 444.475 154.525 562 299.5 562ZM299.5 546C435.638 546 546 435.638 546 299.5C546 163.362 435.638 53 299.5 53C163.362 53 53 163.362 53 299.5C53 435.638 163.362 546 299.5 546Z" fill="url(#paint0_linear_70_2682)"/>
<path fill-rule="evenodd" clip-rule="evenodd" d="M299.5 562C444.475 562 562 444.475 562 299.5C562 154.525 444.475 37 299.5 37C154.525 37 37 154.525 37 299.5C37 444.475 154.525 562 299.5 562ZM299.5 546C435.638 546 546 435.638 546 299.5C546 163.362 435.638 53 299.5 53C163.362 53 53 163.362 53 299.5C53 435.638 163.362 546 299.5 546Z" fill="url(#paint1_radial_70_2682)" style="mix-blend-mode:overlay"/>
<path fill-rule="evenodd" clip-rule="evenodd" d="M299.5 562C444.475 562 562 444.475 562 299.5C562 154.525 444.475 37 299.5 37C154.525 37 37 154.525 37 299.5C37 444.475 154.525 562 299.5 562ZM299.5 546C435.638 546 546 435.638 546 299.5C546 163.362 435.638 53 299.5 53C163.362 53 53 163.362 53 299.5C53 435.638 163.362 546 299.5 546Z" fill="#1B2F31" style="mix-blend-mode:color"/>
</g>
<defs>
<filter id="filter0_dii_70_2682" x="0" y="0" width="599" height="599" filterUnits="userSpaceOnUse" color-interpolation-filters="sRGB">
<feFlood flood-opacity="0" result="BackgroundImageFix"/>
<feColorMatrix in="SourceAlpha" type="matrix" values="0 0 0 0 0 0 0 0 0 0 0 0 0 0 0 0 0 0 127 0" result="hardAlpha"/>
<feMorphology radius="2" operator="dilate" in="SourceAlpha" result="effect1_dropShadow_70_2682"/>
<feOffset/>
<feGaussianBlur stdDeviation="17.5"/>
<feComposite in2="hardAlpha" operator="out"/>
<feColorMatrix type="matrix" values="0 0 0 0 0 0 0 0 0 0 0 0 0 0 0 0 0 0 1 0"/>
<feBlend mode="normal" in2="BackgroundImageFix" result="effect1_dropShadow_70_2682"/>
<feBlend mode="normal" in="SourceGraphic" in2="effect1_dropShadow_70_2682" result="shape"/>
<feColorMatrix in="SourceAlpha" type="matrix" values="0 0 0 0 0 0 0 0 0 0 0 0 0 0 0 0 0 0 127 0" result="hardAlpha"/>
<feOffset dy="3.0943"/>
<feGaussianBlur stdDeviation="0.773576"/>
<feComposite in2="hardAlpha" operator="arithmetic" k2="-1" k3="1"/>
<feColorMatrix type="matrix" values="0 0 0 0 1 0 0 0 0 1 0 0 0 0 1 0 0 0 0.4 0"/>
<feBlend mode="normal" in2="shape" result="effect2_innerShadow_70_2682"/>
<feColorMatrix in="SourceAlpha" type="matrix" values="0 0 0 0 0 0 0 0 0 0 0 0 0 0 0 0 0 0 127 0" result="hardAlpha"/>
<feOffset dy="-3.0943"/>
<feGaussianBlur stdDeviation="0.773576"/>
<feComposite in2="hardAlpha" operator="arithmetic" k2="-1" k3="1"/>
<feColorMatrix type="matrix" values="0 0 0 0 0 0 0 0 0 0 0 0 0 0 0 0 0 0 0.5 0"/>
<feBlend mode="normal" in2="effect2_innerShadow_70_2682" result="effect3_innerShadow_70_2682"/>
</filter>
<linearGradient id="paint0_linear_70_2682" x1="37" y1="384.156" x2="581.031" y2="199.75" gradientUnits="userSpaceOnUse">
<stop stop-color="#576265"/>
<stop offset="0.136981" stop-color="#9EA1A1"/>
<stop offset="0.477532" stop-color="#848B8A"/>
<stop offset="0.563797" stop-color="#576265"/>
<stop offset="0.841205" stop-color="#576265"/>
<stop offset="0.913823" stop-color="#757A7B"/>
<stop offset="1" stop-color="#576265"/>
</linearGradient>
<radialGradient id="paint1_radial_70_2682" cx="0" cy="0" r="1" gradientUnits="userSpaceOnUse" gradientTransform="translate(4.84378 18.625) rotate(44.1231) scale(363.849)">
<stop stop-color="white"/>
<stop offset="1" stop-color="white" stop-opacity="0"/>
</radialGradient>
</defs>
</svg>
